Coordinates
nRows=10
nColumns=34

# SIMM Motion File Header:
name Coordinates
datacolumns 34
datarows 10
otherdata 1
range 1.09300000000000000000 1.10200000000000010000
endheader
time	pelvis_tz	pelvis_tx	pelvis_ty	pelvis_tilt	pelvis_list	pelvis_rotation	hip_flexion_r	hip_adduction_r	hip_rotation_r	knee_r_tx	knee_r_ty	knee_angle_r	tib_pat_r_tx	tib_pat_r_ty	tib_pat_r_r1	ankle_angle_r	subtalar_angle_r	mtp_angle_r	hip_flexion_l	hip_adduction_l	hip_rotation_l	knee_l_tx	knee_l_ty	knee_angle_l	tib_pat_l_tx	tib_pat_l_ty	tib_pat_l_r1	ankle_angle_l	subtalar_angle_l	mtp_angle_l	lumbar_extension	lumbar_bending	lumbar_rotation
      1.09300000000000000000	      0.05427179893332057700	      0.57958750045931318000	      1.04079269200518690000	      4.88340411194605650000	     -1.73536244568471680000	     -0.97051521365147797000	    -10.77026718538472800000	      3.95286752619895320000	     -2.33029193610931130000	     -0.00410993761431719450	     -0.45472508298376851000	     -7.20373756800925060000	      0.04830551590534627700	     -0.02219243905311123200	      7.13257408530467440000	      9.74490612783045580000	     -0.00000000000000194335	     -0.00000000000000165623	     19.99250925286334300000	     -5.02626402832728130000	     -9.13514870909469680000	      0.00050306087616983097	     -0.45737918736456035000	    -27.95159574638835000000	      0.04499832621259689000	     -0.02134205365796226100	     15.19253347761392800000	     -1.00165989359242920000	     -0.00000000000001100382	     -0.00000000000006632978	    -16.59786755091042600000	      2.82736088488206990000	      2.41782259022082970000
      1.09400000000000010000	      0.05429603476186977600	      0.57948990633692166000	      1.04066659644352950000	      4.87708203852275800000	     -1.76903137512192910000	     -0.98531604726423372000	    -10.85451832965703800000	      3.98580792360191880000	     -2.29705037181634130000	     -0.00411809733062245240	     -0.45472088079351308000	     -7.15896335822861920000	      0.04831277391815433400	     -0.02219483941050118600	      7.09722283683957490000	      9.77692739246707450000	     -0.00000000000000185819	     -0.00000000000000110377	     19.98016298302181300000	     -5.04882464574471350000	     -9.16374439028997400000	      0.00043531483215493297	     -0.45731441777897808000	    -27.58264368216117600000	      0.04506758404678116300	     -0.02135690996296916300	     15.14139478595243400000	     -1.03746170410824720000	     -0.00000000000001115319	     -0.00000000000006669726	    -16.59661499536985500000	      2.85378036674981140000	      2.43511571101444260000
      1.09500000000000000000	      0.05431876163200155500	      0.57939382447124166000	      1.04053761456554090000	      4.87086730845707550000	     -1.80300516435879080000	     -1.00016170397312650000	    -10.93894347135493400000	      4.01892782193214690000	     -2.26358316329320570000	     -0.00412614728353873430	     -0.45471672186753537000	     -7.11457087536071510000	      0.04831994623972778900	     -0.02219721444881692100	      7.06197590960663300000	      9.80856499492958460000	     -0.00000000000000179368	     -0.00000000000000049590	     19.96706844712184600000	     -5.07088398490758240000	     -9.18963647062398790000	      0.00036630201318917560	     -0.45725101531188317000	    -27.21419297883050700000	      0.04513578115255257500	     -0.02137167345783135700	     15.08765095196622900000	     -1.07199273336597960000	     -0.00000000000001129160	     -0.00000000000006705220	    -16.59540810746881000000	      2.88045863467964260000	      2.45225006084627630000
      1.09600000000000010000	      0.05434098551599419300	      0.57929824669113217000	      1.04040767058210840000	      4.86468835951059650000	     -1.83708057352888000000	     -1.01502230171406940000	    -11.02342661219471500000	      4.05210755390480590000	     -2.23004074002667170000	     -0.00413416064865869320	     -0.45471257736298348000	     -7.07030563479704100000	      0.04832708999755638100	     -0.02219958104744125200	      7.02676375611773450000	      9.84007471000073150000	     -0.00000000000000173605	      0.00000000000000013045	     19.95372448920240100000	     -5.09277623131893350000	     -9.21462735067091470000	      0.00029686693590644090	     -0.45718806855095062000	    -26.84590939579856100000	      0.04520362468218636800	     -0.02138640601597865300	     15.03303873720509500000	     -1.10610016887102300000	     -0.00000000000001142635	     -0.00000000000006740296	    -16.59421644211427700000	      2.90722316463017850000	      2.46933148702418800000
      1.09700000000000000000	      0.05436275419081824200	      0.57920315742531991000	      1.04027676281006310000	      4.85853085632495320000	     -1.87123313686611750000	     -1.02993789326805410000	    -11.10791427951039100000	      4.08531491724107100000	     -2.19633980329015040000	     -0.00414212247025406290	     -0.45470845524348091000	     -7.02625390206899430000	      0.04833419103932939900	     -0.02220193444172876400	      6.99165773143975590000	      9.87160091129300280000	     -0.00000000000000168286	      0.00000000000000073962	     19.94016445720104600000	     -5.11449665381438120000	     -9.23873458697590340000	      0.00022700610520733769	     -0.45712559210550535000	    -26.47788925031151000000	      0.04527108836229031700	     -0.02140109878027157300	     14.97741512106225600000	     -1.13986819184112330000	     -0.00000000000001155445	     -0.00000000000006776192	    -16.59302830026027200000	      2.93403647958362070000	      2.48639202647409750000
      1.09800000000000010000	      0.05438315723813651900	      0.57910953370239948000	      1.04014296367217880000	      4.85243769042181050000	     -1.90561716270483350000	     -1.04501846626117940000	    -11.19241552625382900000	      4.11860517466818530000	     -2.16216332614363080000	     -0.00414992966127567150	     -0.45470440027912640000	     -6.98284269284780020000	      0.04834116393293570000	     -0.02220424822300582800	      6.95687009319451290000	      9.90317657124866990000	     -0.00000000000000164301	      0.00000000000000129728	     19.92595620295395900000	     -5.13570160456212750000	     -9.26019089205506240000	      0.00015586801425904957	     -0.45706452660652175000	    -26.11065941745883400000	      0.04533741249380476800	     -0.02141567216300138000	     14.91875730077420700000	     -1.17261797720640910000	     -0.00000000000001166256	     -0.00000000000006814550	    -16.59185072890785100000	      2.96099614954580570000	      2.50338990574001350000
      1.09900000000000000000	      0.05440356028545478800	      0.57901590997947916000	      1.04000916453429480000	      4.84634452451866870000	     -1.94000118854354200000	     -1.06009903925430150000	    -11.27691677299724700000	      4.15189543209529250000	     -2.12798684899711830000	     -0.00415773685229727830	     -0.45470034531477183000	     -6.93943148362661510000	      0.04834813682654200100	     -0.02220656200428289300	      6.92208245494927610000	      9.93475223120432990000	     -0.00000000000000160316	      0.00000000000000185494	     19.91174794870687500000	     -5.15690655530986850000	     -9.28164719713421780000	      0.00008472992331077725	     -0.45700346110753814000	    -25.74342958460624000000	      0.04540373662531919900	     -0.02143024554573118300	     14.86009948048617000000	     -1.20536776257168790000	     -0.00000000000001177068	     -0.00000000000006852909	    -16.59067315755543200000	      2.98795581950798490000	      2.52038778500592600000
      1.10000000000000010000	      0.05442284752527808800	      0.57892357416786122000	      1.03987278179259120000	      4.84028250162204810000	     -1.97456274599749930000	     -1.07541903134844770000	    -11.36132697651283500000	      4.18521443427686000000	     -2.09318288315486620000	     -0.00416537744606216080	     -0.45469636581292205000	     -6.89676184468702310000	      0.04835496783483697600	     -0.02220883109433806300	      6.88772363558691230000	      9.96678945504965340000	     -0.00000000000000157346	      0.00000000000000232825	     19.89702987992562900000	     -5.17767137662741920000	     -9.30076146871778060000	      0.00001243668374885649	     -0.45694369594603385000	    -25.37714104540157200000	      0.04546897492980713600	     -0.02144469016293397400	     14.79836527050290800000	     -1.23747367286269490000	     -0.00000000000001190335	     -0.00000000000006892617	    -16.58948648965766300000	      3.01499011914434200000	      2.53740972015875470000
      1.10100000000000000000	      0.05444176282926972000	      0.57883166766001093000	      1.03973553784961470000	      4.83423085972760180000	     -2.00918348065653030000	     -1.09081882980959930000	    -11.44570683228578800000	      4.21854301804323750000	     -2.05816975441404000000	     -0.00417296250740813170	     -0.45469241146524053000	     -6.85433939584131210000	      0.04836175154802818000	     -0.02221108528731927100	      6.85350775585218570000	      9.99898053352485760000	     -0.00000000000000154714	      0.00000000000000277345	     19.88214187296632900000	     -5.19828948813489870000	     -9.31909506246945970000	     -0.00006024160535093264	     -0.45688436423035605000	    -25.01116627074633000000	      0.04553385129195287200	     -0.02145909185829442800	     14.73560559728790400000	     -1.26936495812893120000	     -0.00000000000001204420	     -0.00000000000006932775	    -16.58829678957810900000	      3.04204929533875030000	      2.55443967394055080000
      1.10200000000000010000	      0.05445960546626104500	      0.57874105613821780000	      1.03959585550064460000	      4.82825743846925180000	     -2.04394157078212000000	     -1.10649980200033360000	    -11.53000691275096800000	      4.25184699786880400000	     -2.02241972607966280000	     -0.00418036855107869510	     -0.45468853995106168000	     -6.81274260952076730000	      0.04836838034542517000	     -0.02221329021331909200	      6.81980041541511460000	     10.03177799265412800000	     -0.00000000000000154467	      0.00000000000000319373	     19.86671672026608000000	     -5.21845866150495040000	     -9.33507488140031150000	     -0.00013408680875553897	     -0.45682635010717815000	    -24.64630390217466500000	      0.04559759550427776300	     -0.02147334634630370200	     14.66943267664674300000	     -1.30071533211661120000	     -0.00000000000001220731	     -0.00000000000006970853	    -16.58715692140950200000	      3.06912558567651580000	      2.57152742015007170000
